<mxfile host="app.diagrams.net" modified="2022-01-07T03:34:10.029Z" agent="5.0 (Macintosh; Intel Mac OS X 10_15_7) AppleWebKit/537.36 (KHTML, like Gecko) Chrome/96.0.4664.110 Safari/537.36" etag="Wc4aD-u9tMg98_OC0z0g" version="16.2.1" type="github">
  <diagram id="acTN-JfKOtrDDLTQ5gmf" name="第 1 页">
    <mxGraphModel dx="1186" dy="557" grid="1" gridSize="10" guides="1" tooltips="1" connect="1" arrows="1" fold="1" page="1" pageScale="1" pageWidth="827" pageHeight="1169" math="0" shadow="0">
      <root>
        <mxCell id="0" />
        <mxCell id="1" parent="0" />
        <mxCell id="Y4kB_IvztM1Yx5xasDbs-2" value="BRMediaCallService" style="rounded=0;whiteSpace=wrap;html=1;" parent="1" vertex="1">
          <mxGeometry x="48.5" y="110" width="120" height="40" as="geometry" />
        </mxCell>
        <mxCell id="Y4kB_IvztM1Yx5xasDbs-4" value="&lt;span style=&quot;color: rgb(0 , 0 , 0) ; font-family: &amp;#34;helvetica&amp;#34; ; font-size: 12px ; font-style: normal ; font-weight: 400 ; letter-spacing: normal ; text-align: center ; text-indent: 0px ; text-transform: none ; word-spacing: 0px ; background-color: rgb(248 , 249 , 250) ; display: inline ; float: none&quot;&gt;BRMediaCallDisplayProvider&lt;br&gt;&lt;/span&gt;" style="rounded=0;whiteSpace=wrap;html=1;" parent="1" vertex="1">
          <mxGeometry x="207" y="160" width="175" height="40" as="geometry" />
        </mxCell>
        <mxCell id="Y4kB_IvztM1Yx5xasDbs-5" value="&lt;span style=&quot;color: rgb(0 , 0 , 0) ; font-family: &amp;#34;helvetica&amp;#34; ; font-size: 12px ; font-style: normal ; font-weight: 400 ; letter-spacing: normal ; text-align: center ; text-indent: 0px ; text-transform: none ; word-spacing: 0px ; background-color: rgb(248 , 249 , 250) ; display: inline ; float: none&quot;&gt;FloatingWindow&lt;br&gt;&lt;/span&gt;" style="rounded=0;whiteSpace=wrap;html=1;" parent="1" vertex="1">
          <mxGeometry x="427" y="100" width="180" height="40" as="geometry" />
        </mxCell>
        <mxCell id="Y4kB_IvztM1Yx5xasDbs-6" value="&lt;span style=&quot;color: rgb(0 , 0 , 0) ; font-family: &amp;#34;helvetica&amp;#34; ; font-size: 12px ; font-style: normal ; font-weight: 400 ; letter-spacing: normal ; text-align: center ; text-indent: 0px ; text-transform: none ; word-spacing: 0px ; background-color: rgb(248 , 249 , 250) ; display: inline ; float: none&quot;&gt;ControllerViewController&lt;br&gt;&lt;/span&gt;" style="rounded=0;whiteSpace=wrap;html=1;" parent="1" vertex="1">
          <mxGeometry x="427" y="180" width="180" height="40" as="geometry" />
        </mxCell>
        <mxCell id="Y4kB_IvztM1Yx5xasDbs-8" value="" style="endArrow=classic;html=1;rounded=0;entryX=0;entryY=0.75;entryDx=0;entryDy=0;exitX=1;exitY=0.5;exitDx=0;exitDy=0;" parent="1" source="Y4kB_IvztM1Yx5xasDbs-4" target="Y4kB_IvztM1Yx5xasDbs-5" edge="1">
          <mxGeometry width="50" height="50" relative="1" as="geometry">
            <mxPoint x="487" y="440" as="sourcePoint" />
            <mxPoint x="537" y="390" as="targetPoint" />
          </mxGeometry>
        </mxCell>
        <mxCell id="Y4kB_IvztM1Yx5xasDbs-11" value="" style="endArrow=classic;html=1;rounded=0;entryX=0;entryY=0.5;entryDx=0;entryDy=0;exitX=1;exitY=0.5;exitDx=0;exitDy=0;" parent="1" source="Y4kB_IvztM1Yx5xasDbs-4" target="Y4kB_IvztM1Yx5xasDbs-6" edge="1">
          <mxGeometry width="50" height="50" relative="1" as="geometry">
            <mxPoint x="267" y="340" as="sourcePoint" />
            <mxPoint x="347" y="300" as="targetPoint" />
          </mxGeometry>
        </mxCell>
        <mxCell id="Y4kB_IvztM1Yx5xasDbs-14" value="&lt;span style=&quot;color: rgb(0 , 0 , 0) ; font-family: &amp;#34;helvetica&amp;#34; ; font-size: 12px ; font-style: normal ; font-weight: 400 ; letter-spacing: normal ; text-align: center ; text-indent: 0px ; text-transform: none ; word-spacing: 0px ; background-color: rgb(248 , 249 , 250) ; display: inline ; float: none&quot;&gt;Incoming&lt;br&gt;&lt;/span&gt;" style="rounded=0;whiteSpace=wrap;html=1;" parent="1" vertex="1">
          <mxGeometry x="707" y="300" width="80" height="40" as="geometry" />
        </mxCell>
        <mxCell id="Y4kB_IvztM1Yx5xasDbs-15" value="&lt;span style=&quot;color: rgb(0 , 0 , 0) ; font-family: &amp;#34;helvetica&amp;#34; ; font-size: 12px ; font-style: normal ; font-weight: 400 ; letter-spacing: normal ; text-align: center ; text-indent: 0px ; text-transform: none ; word-spacing: 0px ; background-color: rgb(248 , 249 , 250) ; display: inline ; float: none&quot;&gt;outgoing&lt;br&gt;&lt;/span&gt;" style="rounded=0;whiteSpace=wrap;html=1;" parent="1" vertex="1">
          <mxGeometry x="587" y="297.5" width="80" height="42.5" as="geometry" />
        </mxCell>
        <mxCell id="Y4kB_IvztM1Yx5xasDbs-16" value="&lt;span style=&quot;color: rgb(0 , 0 , 0) ; font-family: &amp;#34;helvetica&amp;#34; ; font-size: 12px ; font-style: normal ; font-weight: 400 ; letter-spacing: normal ; text-align: center ; text-indent: 0px ; text-transform: none ; word-spacing: 0px ; background-color: rgb(248 , 249 , 250) ; display: inline ; float: none&quot;&gt;room&lt;br&gt;&lt;/span&gt;" style="rounded=0;whiteSpace=wrap;html=1;" parent="1" vertex="1">
          <mxGeometry x="467" y="297.5" width="80" height="42.5" as="geometry" />
        </mxCell>
        <mxCell id="Y4kB_IvztM1Yx5xasDbs-20" value="&lt;span style=&quot;color: rgb(0 , 0 , 0) ; font-family: &amp;#34;helvetica&amp;#34; ; font-size: 12px ; font-style: normal ; font-weight: 400 ; letter-spacing: normal ; text-align: center ; text-indent: 0px ; text-transform: none ; word-spacing: 0px ; background-color: rgb(248 , 249 , 250) ; display: inline ; float: none&quot;&gt;ControlManager&lt;br&gt;&lt;/span&gt;" style="rounded=0;whiteSpace=wrap;html=1;" parent="1" vertex="1">
          <mxGeometry x="267" y="300" width="180" height="40" as="geometry" />
        </mxCell>
        <mxCell id="Y4kB_IvztM1Yx5xasDbs-25" value="MediaSession" style="rounded=0;whiteSpace=wrap;html=1;" parent="1" vertex="1">
          <mxGeometry x="317" y="430" width="440" height="30" as="geometry" />
        </mxCell>
        <mxCell id="Y4kB_IvztM1Yx5xasDbs-33" value="RCSSession" style="rounded=0;whiteSpace=wrap;html=1;" parent="1" vertex="1">
          <mxGeometry x="457" y="510" width="120" height="30" as="geometry" />
        </mxCell>
        <mxCell id="Y4kB_IvztM1Yx5xasDbs-35" value="" style="endArrow=classic;html=1;rounded=0;exitX=0.5;exitY=1;exitDx=0;exitDy=0;entryX=0.5;entryY=0;entryDx=0;entryDy=0;" parent="1" source="Y4kB_IvztM1Yx5xasDbs-6" target="Y4kB_IvztM1Yx5xasDbs-20" edge="1">
          <mxGeometry width="50" height="50" relative="1" as="geometry">
            <mxPoint x="487" y="420" as="sourcePoint" />
            <mxPoint x="537" y="370" as="targetPoint" />
          </mxGeometry>
        </mxCell>
        <mxCell id="Y4kB_IvztM1Yx5xasDbs-36" value="" style="endArrow=classic;html=1;rounded=0;entryX=0.5;entryY=0;entryDx=0;entryDy=0;" parent="1" target="Y4kB_IvztM1Yx5xasDbs-16" edge="1">
          <mxGeometry width="50" height="50" relative="1" as="geometry">
            <mxPoint x="517" y="220" as="sourcePoint" />
            <mxPoint x="177" y="300" as="targetPoint" />
          </mxGeometry>
        </mxCell>
        <mxCell id="Y4kB_IvztM1Yx5xasDbs-37" value="" style="endArrow=classic;html=1;rounded=0;entryX=0.5;entryY=0;entryDx=0;entryDy=0;" parent="1" target="Y4kB_IvztM1Yx5xasDbs-15" edge="1">
          <mxGeometry width="50" height="50" relative="1" as="geometry">
            <mxPoint x="517" y="220" as="sourcePoint" />
            <mxPoint x="177" y="300" as="targetPoint" />
          </mxGeometry>
        </mxCell>
        <mxCell id="Y4kB_IvztM1Yx5xasDbs-38" value="" style="endArrow=classic;html=1;rounded=0;exitX=0.5;exitY=1;exitDx=0;exitDy=0;entryX=0.5;entryY=0;entryDx=0;entryDy=0;" parent="1" source="Y4kB_IvztM1Yx5xasDbs-6" target="Y4kB_IvztM1Yx5xasDbs-14" edge="1">
          <mxGeometry width="50" height="50" relative="1" as="geometry">
            <mxPoint x="392" y="260" as="sourcePoint" />
            <mxPoint x="202" y="330" as="targetPoint" />
          </mxGeometry>
        </mxCell>
        <mxCell id="Y4kB_IvztM1Yx5xasDbs-39" value="" style="endArrow=classic;html=1;rounded=0;exitX=0.5;exitY=1;exitDx=0;exitDy=0;" parent="1" source="Y4kB_IvztM1Yx5xasDbs-20" edge="1">
          <mxGeometry width="50" height="50" relative="1" as="geometry">
            <mxPoint x="612" y="270" as="sourcePoint" />
            <mxPoint x="377" y="430" as="targetPoint" />
            <Array as="points">
              <mxPoint x="377" y="430" />
            </Array>
          </mxGeometry>
        </mxCell>
        <mxCell id="Y4kB_IvztM1Yx5xasDbs-40" value="" style="endArrow=classic;html=1;rounded=0;entryX=0.5;entryY=0;entryDx=0;entryDy=0;" parent="1" target="Y4kB_IvztM1Yx5xasDbs-33" edge="1">
          <mxGeometry width="50" height="50" relative="1" as="geometry">
            <mxPoint x="517" y="460" as="sourcePoint" />
            <mxPoint x="432" y="350" as="targetPoint" />
          </mxGeometry>
        </mxCell>
        <mxCell id="Y4kB_IvztM1Yx5xasDbs-41" value="Presenter" style="rounded=0;whiteSpace=wrap;html=1;" parent="1" vertex="1">
          <mxGeometry x="477" y="360" width="80" height="30" as="geometry" />
        </mxCell>
        <mxCell id="Y4kB_IvztM1Yx5xasDbs-42" value="Presenter" style="rounded=0;whiteSpace=wrap;html=1;" parent="1" vertex="1">
          <mxGeometry x="577" y="360" width="80" height="30" as="geometry" />
        </mxCell>
        <mxCell id="Y4kB_IvztM1Yx5xasDbs-43" value="Presenter" style="rounded=0;whiteSpace=wrap;html=1;" parent="1" vertex="1">
          <mxGeometry x="677" y="360" width="80" height="30" as="geometry" />
        </mxCell>
        <mxCell id="Y4kB_IvztM1Yx5xasDbs-44" value="" style="endArrow=classic;html=1;rounded=0;exitX=0.5;exitY=1;exitDx=0;exitDy=0;entryX=0.455;entryY=-0.087;entryDx=0;entryDy=0;entryPerimeter=0;" parent="1" source="Y4kB_IvztM1Yx5xasDbs-41" target="Y4kB_IvztM1Yx5xasDbs-25" edge="1">
          <mxGeometry width="50" height="50" relative="1" as="geometry">
            <mxPoint x="517" y="420" as="sourcePoint" />
            <mxPoint x="567" y="370" as="targetPoint" />
          </mxGeometry>
        </mxCell>
        <mxCell id="Y4kB_IvztM1Yx5xasDbs-47" value="" style="endArrow=classic;html=1;rounded=0;exitX=0.5;exitY=1;exitDx=0;exitDy=0;entryX=0.682;entryY=-0.056;entryDx=0;entryDy=0;entryPerimeter=0;" parent="1" source="Y4kB_IvztM1Yx5xasDbs-42" target="Y4kB_IvztM1Yx5xasDbs-25" edge="1">
          <mxGeometry width="50" height="50" relative="1" as="geometry">
            <mxPoint x="527" y="400" as="sourcePoint" />
            <mxPoint x="487" y="440" as="targetPoint" />
          </mxGeometry>
        </mxCell>
        <mxCell id="Y4kB_IvztM1Yx5xasDbs-48" value="" style="endArrow=classic;html=1;rounded=0;exitX=0.568;exitY=1.056;exitDx=0;exitDy=0;exitPerimeter=0;" parent="1" source="Y4kB_IvztM1Yx5xasDbs-43" edge="1">
          <mxGeometry width="50" height="50" relative="1" as="geometry">
            <mxPoint x="537" y="410" as="sourcePoint" />
            <mxPoint x="722" y="428" as="targetPoint" />
          </mxGeometry>
        </mxCell>
        <mxCell id="Y4kB_IvztM1Yx5xasDbs-49" value="" style="endArrow=classic;html=1;rounded=0;entryX=0.455;entryY=-0.087;entryDx=0;entryDy=0;entryPerimeter=0;" parent="1" edge="1">
          <mxGeometry width="50" height="50" relative="1" as="geometry">
            <mxPoint x="517" y="330" as="sourcePoint" />
            <mxPoint x="516.8800000000001" y="360" as="targetPoint" />
          </mxGeometry>
        </mxCell>
        <mxCell id="Y4kB_IvztM1Yx5xasDbs-50" value="" style="endArrow=classic;html=1;rounded=0;exitX=0.5;exitY=1;exitDx=0;exitDy=0;" parent="1" edge="1">
          <mxGeometry width="50" height="50" relative="1" as="geometry">
            <mxPoint x="616.6800000000001" y="330" as="sourcePoint" />
            <mxPoint x="617" y="360" as="targetPoint" />
          </mxGeometry>
        </mxCell>
        <mxCell id="Y4kB_IvztM1Yx5xasDbs-51" value="" style="endArrow=classic;html=1;rounded=0;exitX=0.5;exitY=1;exitDx=0;exitDy=0;" parent="1" edge="1">
          <mxGeometry width="50" height="50" relative="1" as="geometry">
            <mxPoint x="716.6800000000001" y="330" as="sourcePoint" />
            <mxPoint x="717" y="360" as="targetPoint" />
          </mxGeometry>
        </mxCell>
        <mxCell id="Y4kB_IvztM1Yx5xasDbs-54" value="" style="endArrow=block;dashed=1;endFill=0;endSize=12;html=1;rounded=0;entryX=0.75;entryY=1;entryDx=0;entryDy=0;" parent="1" target="Y4kB_IvztM1Yx5xasDbs-20" edge="1">
          <mxGeometry width="160" relative="1" as="geometry">
            <mxPoint x="407" y="430" as="sourcePoint" />
            <mxPoint x="867" y="460" as="targetPoint" />
          </mxGeometry>
        </mxCell>
        <mxCell id="Y4kB_IvztM1Yx5xasDbs-55" value="" style="endArrow=block;dashed=1;endFill=0;endSize=12;html=1;rounded=0;entryX=0.518;entryY=1.1;entryDx=0;entryDy=0;entryPerimeter=0;" parent="1" edge="1">
          <mxGeometry width="160" relative="1" as="geometry">
            <mxPoint x="707" y="430" as="sourcePoint" />
            <mxPoint x="707.0000000000001" y="390" as="targetPoint" />
          </mxGeometry>
        </mxCell>
        <mxCell id="Y4kB_IvztM1Yx5xasDbs-56" value="" style="endArrow=block;dashed=1;endFill=0;endSize=12;html=1;rounded=0;entryX=0.518;entryY=1.1;entryDx=0;entryDy=0;entryPerimeter=0;exitX=0.727;exitY=0;exitDx=0;exitDy=0;exitPerimeter=0;" parent="1" source="Y4kB_IvztM1Yx5xasDbs-25" edge="1">
          <mxGeometry width="160" relative="1" as="geometry">
            <mxPoint x="637" y="420" as="sourcePoint" />
            <mxPoint x="637" y="390" as="targetPoint" />
          </mxGeometry>
        </mxCell>
        <mxCell id="Y4kB_IvztM1Yx5xasDbs-57" value="" style="endArrow=block;dashed=1;endFill=0;endSize=12;html=1;rounded=0;entryX=0.518;entryY=1.1;entryDx=0;entryDy=0;entryPerimeter=0;" parent="1" edge="1">
          <mxGeometry width="160" relative="1" as="geometry">
            <mxPoint x="536" y="430" as="sourcePoint" />
            <mxPoint x="535.96" y="390" as="targetPoint" />
          </mxGeometry>
        </mxCell>
        <mxCell id="Y4kB_IvztM1Yx5xasDbs-58" value="" style="endArrow=block;dashed=1;endFill=0;endSize=12;html=1;rounded=0;exitX=0.25;exitY=0;exitDx=0;exitDy=0;entryX=0.25;entryY=1;entryDx=0;entryDy=0;" parent="1" source="Y4kB_IvztM1Yx5xasDbs-20" target="Y4kB_IvztM1Yx5xasDbs-6" edge="1">
          <mxGeometry width="160" relative="1" as="geometry">
            <mxPoint x="159.08" y="300" as="sourcePoint" />
            <mxPoint x="312" y="230" as="targetPoint" />
          </mxGeometry>
        </mxCell>
        <mxCell id="wlhcTxPOYqE-Y0xlIYoe-1" style="edgeStyle=orthogonalEdgeStyle;rounded=0;orthogonalLoop=1;jettySize=auto;html=1;exitX=0.5;exitY=1;exitDx=0;exitDy=0;entryX=0.75;entryY=1;entryDx=0;entryDy=0;" parent="1" source="Y4kB_IvztM1Yx5xasDbs-14" target="Y4kB_IvztM1Yx5xasDbs-14" edge="1">
          <mxGeometry relative="1" as="geometry" />
        </mxCell>
        <mxCell id="wlhcTxPOYqE-Y0xlIYoe-3" value="&lt;br&gt;&lt;br&gt;&lt;br&gt;&lt;br&gt;&lt;br&gt;&lt;br&gt;&lt;br&gt;&lt;br&gt;&lt;br&gt;&lt;br&gt;&lt;br&gt;&lt;p class=&quot;p1&quot;&gt;&lt;/p&gt;&lt;br&gt;&lt;br&gt;" style="rounded=0;whiteSpace=wrap;html=1;" parent="1" vertex="1">
          <mxGeometry x="40" y="289" width="187" height="211" as="geometry" />
        </mxCell>
        <mxCell id="wlhcTxPOYqE-Y0xlIYoe-8" style="edgeStyle=orthogonalEdgeStyle;rounded=0;orthogonalLoop=1;jettySize=auto;html=1;exitX=0.75;exitY=0;exitDx=0;exitDy=0;entryX=0.25;entryY=1;entryDx=0;entryDy=0;" parent="1" source="wlhcTxPOYqE-Y0xlIYoe-4" target="Y4kB_IvztM1Yx5xasDbs-4" edge="1">
          <mxGeometry relative="1" as="geometry" />
        </mxCell>
        <mxCell id="wlhcTxPOYqE-Y0xlIYoe-9" style="edgeStyle=orthogonalEdgeStyle;rounded=0;orthogonalLoop=1;jettySize=auto;html=1;exitX=1;exitY=0.5;exitDx=0;exitDy=0;entryX=0;entryY=0.75;entryDx=0;entryDy=0;" parent="1" source="wlhcTxPOYqE-Y0xlIYoe-4" target="Y4kB_IvztM1Yx5xasDbs-25" edge="1">
          <mxGeometry relative="1" as="geometry">
            <Array as="points">
              <mxPoint x="247" y="325" />
              <mxPoint x="247" y="452" />
            </Array>
          </mxGeometry>
        </mxCell>
        <mxCell id="wlhcTxPOYqE-Y0xlIYoe-4" value="SessionManager" style="rounded=0;whiteSpace=wrap;html=1;" parent="1" vertex="1">
          <mxGeometry x="47" y="300" width="170" height="50" as="geometry" />
        </mxCell>
        <mxCell id="wlhcTxPOYqE-Y0xlIYoe-5" value="SessionManager" style="rounded=0;whiteSpace=wrap;html=1;" parent="1" vertex="1">
          <mxGeometry x="47" y="360" width="170" height="50" as="geometry" />
        </mxCell>
      </root>
    </mxGraphModel>
  </diagram>
</mxfile>
